<svg width="1080" height="251" viewBox="0 0 1080 251" fill="none" xmlns="http://www.w3.org/2000/svg">
<path d="M1004.39 102.964L1034.09 32.4058H1050.64L1080 102.964H1063.19L1056.48 86.9361H1027.47L1020.68 102.964H1004.39ZM1032.61 73.3471H1052.12L1042.63 50.0018H1042.19L1032.61 73.3471Z" fill="#F5F5F5"/>
<path d="M991.847 102.964H975.819V46.6917H953.693V32.4058H1013.97V46.6917H991.847V102.964Z" fill="#F5F5F5"/>
<path d="M921.981 104.01C902.73 104.01 890.621 95.1245 889.576 80.0546H906.301C907.608 87.3718 913.096 90.9433 922.591 90.9433C931.127 90.9433 935.396 88.33 935.396 83.1034C935.396 79.0964 932.957 77.0058 926.946 75.6992L912.05 72.5632C898.548 69.6886 892.189 63.3297 892.189 52.7023C892.189 39.3746 902.991 31.3606 920.587 31.3606C938.27 31.3606 949.769 39.7231 950.901 53.8348H934.176C932.521 47.1274 927.904 43.9043 919.629 43.9043C912.486 43.9043 908.218 46.5176 908.218 51.1344C908.218 54.6187 910.744 56.8836 915.709 57.9289L931.301 61.1519C945.326 64.0265 951.424 70.3855 951.424 81.7968C951.424 95.9085 940.884 104.01 921.981 104.01Z" fill="#F5F5F5"/>
<path d="M862.422 102.964V32.4058H878.798V102.964H862.422Z" fill="#F5F5F5"/>
<path d="M830.763 102.964H814.735V46.6917H792.609V32.4058H852.889V46.6917H830.763V102.964Z" fill="#F5F5F5"/>
<path d="M726.521 102.964L756.226 32.4058H772.776L802.132 102.964H785.32L778.613 86.9361H749.605L742.811 102.964H726.521ZM754.745 73.3471H774.257L764.762 50.0018H764.327L754.745 73.3471Z" fill="#F5F5F5"/>
<path d="M662.436 102.964V32.4058H699.37C712.175 32.4058 720.973 39.7229 720.973 50.3503C720.973 57.0577 717.489 62.1971 711.217 64.8104V65.1588C719.492 67.685 724.457 74.3053 724.457 82.7549C724.457 94.7759 714.962 102.964 700.938 102.964H662.436ZM678.812 59.9323H697.018C701.983 59.9323 704.596 57.6674 704.596 53.312C704.596 48.9565 701.983 46.6917 697.018 46.6917H678.812V59.9323ZM678.812 88.6783H698.15C704.596 88.6783 708.081 85.8037 708.081 80.6642C708.081 75.6119 704.596 72.8244 698.237 72.8244H678.812V88.6783Z" fill="#F5F5F5"/>
<path d="M554.924 102.964L584.628 32.4058H601.179L630.535 102.964H613.723L607.015 86.9361H578.008L571.213 102.964H554.924ZM583.147 73.3471H602.66L593.165 50.0018H592.729L583.147 73.3471Z" fill="#F5F5F5"/>
<path d="M514.643 102.964V88.6783H530.496V32.4058H546.873V90.4205C546.873 98.9572 542.256 102.964 533.981 102.964H514.643Z" fill="#F5F5F5"/>
<path d="M508.191 102.964H455.926V32.4058H508.191V46.6917H472.302V59.4096H505.055V73.3471H472.302V88.6783H508.191V102.964Z" fill="#F5F5F5"/>
<path d="M380.998 102.964V32.4058H418.455C433.612 32.4058 442.846 39.7229 442.846 51.5698C442.846 59.4967 438.751 65.0717 432.305 67.0752V67.4236C439.013 67.4236 442.846 71.0822 442.846 78.3994V102.964H426.469V76.8314H397.375V102.964H380.998ZM397.375 62.5455H417.41C423.42 62.5455 426.817 59.6709 426.817 54.6186C426.817 49.5663 423.42 46.6917 417.41 46.6917H397.375V62.5455Z" fill="#F5F5F5"/>
<path d="M334.222 104.01C313.578 104.01 299.466 89.2882 299.466 67.7722C299.466 45.9078 314.013 31.3606 335.877 31.3606C353.735 31.3606 366.104 41.1168 368.456 57.0578H351.383C350.25 50.002 344.414 45.8207 335.877 45.8207C323.595 45.8207 315.842 54.4445 315.842 67.9464C315.842 81.7097 323.769 90.4206 336.4 90.4206C345.547 90.4206 352.428 85.7167 352.428 79.4449V77.3542H335.093V64.8105H356.958C364.623 64.8105 368.456 68.4691 368.456 75.7863V102.964H353.474V95.473H353.038C349.641 101.135 343.369 104.01 334.222 104.01Z" fill="#F5F5F5"/>
<path d="M271.781 102.964V32.4058H288.158V102.964H271.781Z" fill="#F5F5F5"/>
<path d="M952.949 141.554V141.205L962.357 125.438H979.256V125.787L965.58 141.554H952.949ZM987.88 218.558H935.614V148H987.88V162.286H951.991V175.004H984.744V188.941H951.991V204.272H987.88V218.558Z" fill="#F5F5F5"/>
<path d="M860.687 218.558V148H898.143C913.3 148 922.534 155.317 922.534 167.164C922.534 175.09 918.44 180.665 911.994 182.669V183.017C918.701 183.017 922.534 186.676 922.534 193.993V218.558H906.157V192.425H877.063V218.558H860.687ZM877.063 178.139H897.098C903.109 178.139 906.506 175.265 906.506 170.212C906.506 165.16 903.109 162.285 897.098 162.285H877.063V178.139Z" fill="#F5F5F5"/>
<path d="M813.656 219.604C791.879 219.604 777.419 205.405 777.419 183.279C777.419 161.066 791.879 146.955 813.656 146.955C835.521 146.955 849.894 160.892 849.894 183.279C849.894 205.492 835.434 219.604 813.656 219.604ZM813.656 205.318C826.374 205.318 833.517 196.607 833.517 183.279C833.517 169.864 826.374 161.24 813.656 161.24C800.938 161.24 793.795 169.864 793.795 183.279C793.795 196.607 800.938 205.318 813.656 205.318Z" fill="#F5F5F5"/>
<path d="M682.964 218.558V148H705.002L724.689 195.387H725.038L744.637 148H766.589V218.558H750.212V171.693H749.864L731.309 218.558H717.198L698.644 171.693H698.295V218.558H682.964Z" fill="#F5F5F5"/>
<path d="M599.859 218.558L629.564 148H646.114L675.47 218.558H658.658L651.951 202.53H622.943L616.149 218.558H599.859ZM628.083 188.941H647.595L638.1 165.596H637.665L628.083 188.941Z" fill="#F5F5F5"/>
<path d="M531.373 218.558V148H568.83C583.987 148 593.221 155.317 593.221 167.164C593.221 175.09 589.126 180.665 582.68 182.669V183.017C589.388 183.017 593.221 186.676 593.221 193.993V218.558H576.844V192.425H547.75V218.558H531.373ZM547.75 178.139H567.785C573.795 178.139 577.192 175.265 577.192 170.212C577.192 165.16 573.795 162.285 567.785 162.285H547.75V178.139Z" fill="#F5F5F5"/>
<path d="M484.597 219.604C463.953 219.604 449.841 204.882 449.841 183.366C449.841 161.502 464.388 146.955 486.252 146.955C504.11 146.955 516.479 156.711 518.831 172.652H501.758C500.625 165.596 494.789 161.415 486.252 161.415C473.97 161.415 466.217 170.039 466.217 183.54C466.217 197.304 474.144 206.015 486.775 206.015C495.922 206.015 502.803 201.311 502.803 195.039V192.948H485.468V180.405H507.333C514.998 180.405 518.831 184.063 518.831 191.38V218.558H503.849V211.067H503.413C500.016 216.729 493.744 219.604 484.597 219.604Z" fill="#F5F5F5"/>
<path d="M381.548 219.604C359.771 219.604 345.311 205.405 345.311 183.279C345.311 161.066 359.771 146.955 381.548 146.955C403.412 146.955 417.785 160.892 417.785 183.279C417.785 205.492 403.325 219.604 381.548 219.604ZM381.548 205.318C394.266 205.318 401.409 196.607 401.409 183.279C401.409 169.864 394.266 161.24 381.548 161.24C368.83 161.24 361.687 169.864 361.687 183.279C361.687 196.607 368.83 205.318 381.548 205.318Z" fill="#F5F5F5"/>
<path d="M271.781 218.558V148H300.353C323.263 148 337.636 161.502 337.636 183.279C337.636 204.882 323.176 218.558 300.353 218.558H271.781ZM288.158 204.621H300.353C314.203 204.621 321.259 195.997 321.259 183.279C321.259 170.474 314.203 161.937 300.353 161.937H288.158V204.621Z" fill="#F5F5F5"/>
<path d="M121.955 17.1048C121.955 26.5516 114.156 34.2097 104.534 34.2097C94.9125 34.2097 87.1126 26.5516 87.1126 17.1048C87.1126 7.65809 94.9125 0 104.534 0C114.156 0 121.955 7.65809 121.955 17.1048Z" fill="#F5F5F5"/>
<path d="M69.6873 0.00107664C69.6873 0.00107664 -6.41767e-08 22.8069 0 68.4203C3.20886e-08 91.2272 23.2291 108.333 23.2291 108.333L23.2304 126.389C23.2308 132.162 27.9107 136.842 33.6835 136.842L87.1131 136.842V240.421C87.1131 246.194 91.7931 250.874 97.5662 250.874H121.957L121.955 148.244C121.955 148.244 174.218 159.647 180.026 188.156C185.833 216.664 139.375 250.874 139.375 250.874C139.375 250.874 209.062 228.069 209.062 182.455C209.062 153.946 168.411 136.841 168.411 136.841L185.833 136.841L185.834 113.085C185.835 107.312 181.155 102.631 175.381 102.631H121.957L121.957 57.4921C121.957 51.719 117.277 47.039 111.504 47.039H87.1131L87.1111 102.631L69.6893 102.632C69.6893 102.632 36.0168 93.5597 29.0364 62.7197C22.056 31.8797 69.6873 0.00107664 69.6873 0.00107664Z" fill="#F5F5F5"/>
</svg>
