<svg width="648" height="251" viewBox="0 0 648 251" fill="none" xmlns="http://www.w3.org/2000/svg">
<path d="M570.847 205.588C524.319 205.588 492.516 172.41 492.516 123.92C492.516 74.6437 525.301 41.8585 574.577 41.8585C614.822 41.8585 642.699 63.8462 648 99.7724H609.521C606.969 83.8707 593.816 74.4474 574.577 74.4474C546.896 74.4474 529.423 93.8829 529.423 124.312C529.423 155.331 547.288 174.962 575.755 174.962C596.368 174.962 611.877 164.361 611.877 150.226V145.515H572.81V117.245H622.086C639.362 117.245 648 125.49 648 141.981V203.232H614.233V186.349H613.251C605.595 199.11 591.46 205.588 570.847 205.588Z" fill="#171717"/>
<path d="M340.61 203.232V44.2137H423.849C452.708 44.2137 472.536 60.7045 472.536 84.6553C472.536 99.7718 464.684 111.355 450.549 117.244V118.029C469.199 123.723 480.389 138.643 480.389 157.686C480.389 184.778 458.99 203.232 427.383 203.232H340.61ZM377.518 106.25H418.549C429.739 106.25 435.628 101.146 435.628 91.3301C435.628 81.5142 429.739 76.41 418.549 76.41H377.518V106.25ZM377.518 171.035H421.101C435.628 171.035 443.481 164.557 443.481 152.974C443.481 141.588 435.628 135.305 421.297 135.305H377.518V171.035Z" fill="#171717"/>
<path d="M271.16 203.232V44.2137H297.639C303.399 44.2137 308.068 48.8831 308.068 54.643V203.232H271.16Z" fill="#171717"/>
<path d="M121.677 17.2073C121.677 26.6325 113.895 34.2731 104.295 34.2731C94.6956 34.2731 86.9136 26.6325 86.9136 17.2073C86.9136 7.7822 94.6956 0.141602 104.295 0.141602C113.895 0.141602 121.677 7.7822 121.677 17.2073Z" fill="#9F0712"/>
<path d="M69.5281 0.142676C69.5281 0.142676 -6.40301e-08 22.8964 0 68.4056C3.20152e-08 91.1603 23.176 108.227 23.176 108.227L23.1773 126.242C23.1777 132.002 27.8469 136.671 33.6065 136.671L86.9141 136.67V240.014C86.9141 245.774 91.5834 250.443 97.3433 250.443H121.678L121.676 148.047C121.676 148.047 173.82 159.424 179.614 187.868C185.408 216.311 139.056 250.443 139.056 250.443C139.056 250.443 208.584 227.689 208.584 182.18C208.584 153.736 168.026 136.67 168.026 136.67L185.408 136.67L185.41 112.968C185.41 107.208 180.741 102.538 174.981 102.538H121.678L121.678 57.5023C121.678 51.7424 117.009 47.0731 111.249 47.0731H86.9141L86.9121 102.539L69.5301 102.539C69.5301 102.539 35.9345 93.4875 28.9701 62.718C22.0056 31.9485 69.5281 0.142676 69.5281 0.142676Z" fill="#9F0712"/>
</svg>
