<svg width="1080" height="250" viewBox="0 0 1080 250" fill="none" xmlns="http://www.w3.org/2000/svg">
<path d="M997.806 102.29L1027.32 32.1934H1043.76L1072.92 102.29H1056.22L1049.56 86.3664H1020.74L1013.99 102.29H997.806ZM1025.84 72.8664H1045.23L1035.8 49.6741H1035.36L1025.84 72.8664Z" fill="#171717"/>
<path d="M985.348 102.29H969.425V46.3857H947.444V32.1934H1007.33V46.3857H985.348V102.29Z" fill="#171717"/>
<path d="M915.939 103.327C896.814 103.327 884.786 94.5002 883.747 79.5291H900.362C901.661 86.7983 907.112 90.3464 916.545 90.3464C925.026 90.3464 929.266 87.7502 929.266 82.5579C929.266 78.5771 926.843 76.5002 920.872 75.2021L906.074 72.0867C892.661 69.231 886.343 62.9137 886.343 52.356C886.343 39.1156 897.074 31.1541 914.555 31.1541C932.122 31.1541 943.545 39.4617 944.67 53.481H928.055C926.411 46.8175 921.824 43.6156 913.603 43.6156C906.507 43.6156 902.266 46.2117 902.266 50.7983C902.266 54.2598 904.776 56.5098 909.709 57.5483L925.199 60.7502C939.132 63.606 945.189 69.9233 945.189 81.2598C945.189 95.2791 934.718 103.327 915.939 103.327Z" fill="#171717"/>
<path d="M856.771 102.29V32.1934H873.041V102.29H856.771Z" fill="#171717"/>
<path d="M825.319 102.29H809.396V46.3857H787.415V32.1934H847.3V46.3857H825.319V102.29Z" fill="#171717"/>
<path d="M721.761 102.29L751.27 32.1934H767.713L796.876 102.29H780.174L773.511 86.3664H744.693L737.943 102.29H721.761ZM749.799 72.8664H769.184L759.751 49.6741H759.318L749.799 72.8664Z" fill="#171717"/>
<path d="M658.095 102.29V32.1934H694.787C707.508 32.1934 716.249 39.4626 716.249 50.0203C716.249 56.6837 712.787 61.7895 706.556 64.3857V64.7318C714.777 67.2414 719.71 73.8184 719.71 82.2126C719.71 94.1549 710.277 102.29 696.345 102.29H658.095ZM674.364 59.5395H692.45C697.383 59.5395 699.979 57.2895 699.979 52.9626C699.979 48.6357 697.383 46.3857 692.45 46.3857H674.364V59.5395ZM674.364 88.0972H693.575C699.979 88.0972 703.441 85.2414 703.441 80.1357C703.441 75.1164 699.979 72.3472 693.662 72.3472H674.364V88.0972Z" fill="#171717"/>
<path d="M551.287 102.29L580.797 32.1934H597.239L626.402 102.29H609.701L603.037 86.3664H574.22L567.47 102.29H551.287ZM579.326 72.8664H598.71L589.278 49.6741H588.845L579.326 72.8664Z" fill="#171717"/>
<path d="M511.27 102.29V88.0972H527.02V32.1934H543.289V89.828C543.289 98.3087 538.702 102.29 530.481 102.29H511.27Z" fill="#171717"/>
<path d="M504.861 102.29H452.938V32.1934H504.861V46.3857H469.207V59.0203H501.745V72.8664H469.207V88.0972H504.861V102.29Z" fill="#171717"/>
<path d="M378.501 102.29V32.1934H415.713C430.77 32.1934 439.943 39.4626 439.943 51.2318C439.943 59.1068 435.876 64.6453 429.472 66.6357V66.9818C436.136 66.9818 439.943 70.6164 439.943 77.8857V102.29H423.674V76.328H394.77V102.29H378.501ZM394.77 62.1357H414.674C420.645 62.1357 424.02 59.2799 424.02 54.2607C424.02 49.2414 420.645 46.3857 414.674 46.3857H394.77V62.1357Z" fill="#171717"/>
<path d="M332.032 103.327C311.522 103.327 297.503 88.7021 297.503 67.3271C297.503 45.606 311.955 31.1541 333.676 31.1541C351.416 31.1541 363.705 40.8464 366.041 56.6829H349.08C347.955 49.6733 342.157 45.5194 333.676 45.5194C321.474 45.5194 313.772 54.0867 313.772 67.5002C313.772 81.1733 321.647 89.8271 334.195 89.8271C343.282 89.8271 350.118 85.1541 350.118 78.9233V76.8464H332.897V64.3848H354.618C362.234 64.3848 366.041 68.0194 366.041 75.2887V102.289H351.157V94.8464H350.724C347.349 100.471 341.118 103.327 332.032 103.327Z" fill="#171717"/>
<path d="M270 102.29V32.1934H286.269V102.29H270Z" fill="#171717"/>
<path d="M946.706 140.625V140.279L956.052 124.615H972.84V124.962L959.254 140.625H946.706ZM981.407 217.125H929.484V147.029H981.407V161.221H945.754V173.856H978.292V187.702H945.754V202.933H981.407V217.125Z" fill="#171717"/>
<path d="M855.047 217.126V147.03H892.258C907.316 147.03 916.489 154.299 916.489 166.068C916.489 173.943 912.422 179.482 906.018 181.472V181.818C912.681 181.818 916.489 185.453 916.489 192.722V217.126H900.22V191.165H871.316V217.126H855.047ZM871.316 176.972H891.22C897.191 176.972 900.566 174.117 900.566 169.097C900.566 164.078 897.191 161.222 891.22 161.222H871.316V176.972Z" fill="#171717"/>
<path d="M808.325 218.164C786.691 218.164 772.325 204.058 772.325 182.077C772.325 160.01 786.691 145.991 808.325 145.991C830.046 145.991 844.325 159.837 844.325 182.077C844.325 204.145 829.96 218.164 808.325 218.164ZM808.325 203.971C820.96 203.971 828.056 195.318 828.056 182.077C828.056 168.75 820.96 160.183 808.325 160.183C795.691 160.183 788.594 168.75 788.594 182.077C788.594 195.318 795.691 203.971 808.325 203.971Z" fill="#171717"/>
<path d="M678.488 217.126V147.03H700.383L719.94 194.107H720.286L739.757 147.03H761.565V217.126H745.296V170.568H744.95L726.517 217.126H712.498L694.065 170.568H693.719V217.126H678.488Z" fill="#171717"/>
<path d="M595.929 217.126L625.438 147.03H641.881L671.044 217.126H654.342L647.679 201.203H618.861L612.111 217.126H595.929ZM623.967 187.703H643.352L633.919 164.511H633.486L623.967 187.703Z" fill="#171717"/>
<path d="M527.892 217.126V147.03H565.103C580.161 147.03 589.334 154.299 589.334 166.068C589.334 173.943 585.267 179.482 578.863 181.472V181.818C585.526 181.818 589.334 185.453 589.334 192.722V217.126H573.065V191.165H544.161V217.126H527.892ZM544.161 176.972H564.065C570.036 176.972 573.411 174.117 573.411 169.097C573.411 164.078 570.036 161.222 564.065 161.222H544.161V176.972Z" fill="#171717"/>
<path d="M481.422 218.164C460.913 218.164 446.894 203.539 446.894 182.164C446.894 160.443 461.345 145.991 483.067 145.991C500.807 145.991 513.095 155.683 515.432 171.52H498.47C497.345 164.51 491.547 160.356 483.067 160.356C470.865 160.356 463.163 168.923 463.163 182.337C463.163 196.01 471.038 204.664 483.586 204.664C492.672 204.664 499.509 199.991 499.509 193.76V191.683H482.288V179.221H504.009C511.624 179.221 515.432 182.856 515.432 190.125V217.125H500.547V209.683H500.115C496.74 215.308 490.509 218.164 481.422 218.164Z" fill="#171717"/>
<path d="M379.047 218.164C357.412 218.164 343.047 204.058 343.047 182.077C343.047 160.01 357.412 145.991 379.047 145.991C400.768 145.991 415.047 159.837 415.047 182.077C415.047 204.145 400.681 218.164 379.047 218.164ZM379.047 203.971C391.681 203.971 398.778 195.318 398.778 182.077C398.778 168.75 391.681 160.183 379.047 160.183C366.412 160.183 359.316 168.75 359.316 182.077C359.316 195.318 366.412 203.971 379.047 203.971Z" fill="#171717"/>
<path d="M270 217.126V147.03H298.385C321.144 147.03 335.423 160.443 335.423 182.078C335.423 203.54 321.058 217.126 298.385 217.126H270ZM286.269 203.28H298.385C312.144 203.28 319.154 194.713 319.154 182.078C319.154 169.357 312.144 160.876 298.385 160.876H286.269V203.28Z" fill="#171717"/>
<path d="M121.156 16.9928C121.156 26.3776 113.408 33.9855 103.849 33.9855C94.2906 33.9855 86.5419 26.3776 86.5419 16.9928C86.5419 7.60792 94.2906 0 103.849 0C113.408 0 121.156 7.60792 121.156 16.9928Z" fill="#9F0712"/>
<path d="M69.2308 0.00106958C69.2308 0.00106958 -6.37562e-08 22.6574 0 67.972C3.18783e-08 90.6295 23.0769 107.623 23.0769 107.623L23.0782 125.561C23.0786 131.296 27.7278 135.945 33.4628 135.945L86.5424 135.945V238.846C86.5424 244.581 91.1917 249.231 96.927 249.231H121.158L121.156 147.273C121.156 147.273 173.077 158.601 178.846 186.923C184.615 215.245 138.462 249.231 138.462 249.231C138.462 249.231 207.692 226.574 207.692 181.26C207.692 152.937 167.308 135.944 167.308 135.944H184.615L184.617 112.344C184.617 106.609 179.968 101.959 174.232 101.959H121.158L121.158 57.1154C121.158 51.3801 116.508 46.7308 110.773 46.7308H86.5424L86.5404 101.959L69.2327 101.959C69.2327 101.959 35.7808 92.9467 28.8462 62.3088C21.9115 31.6708 69.2308 0.00106958 69.2308 0.00106958Z" fill="#9F0712"/>
</svg>
