<svg xmlns="http://www.w3.org/2000/svg" viewBox="0 0 500 500"><g id="freepik--background-simple--inject-3"><path d="M380,133.87s-21-30-56-47-91-23-133,23-15.74,33.77-64.37,50.89S45,200.87,67,240.87,175.92,288,156.46,297.45,66,321.87,95,362.87s134,15,173,16,16,25,50,28,79-33,92-86-62-76-45-100S403,175.87,380,133.87Z" style="fill:#C53F3F"></path><path d="M380,133.87s-21-30-56-47-91-23-133,23-15.74,33.77-64.37,50.89S45,200.87,67,240.87,175.92,288,156.46,297.45,66,321.87,95,362.87s134,15,173,16,16,25,50,28,79-33,92-86-62-76-45-100S403,175.87,380,133.87Z" style="fill:#fff;opacity:0.7000000000000001"></path></g><g id="freepik--speech-bubble--inject-3"><path d="M354.19,119.21v8.44a2.82,2.82,0,0,1-2.82,2.82H126.63a2.82,2.82,0,0,1-2.82-2.82V86.88a2.82,2.82,0,0,1,2.82-2.82H351.37a2.82,2.82,0,0,1,2.82,2.82V98.14" style="fill:#fff;stroke:#2e353a;stroke-miterlimit:10"></path><line x1="354.19" y1="104.92" x2="354.19" y2="115.83" style="fill:#fff;stroke:#2e353a;stroke-miterlimit:10"></line><line x1="127.57" y1="112.15" x2="344.12" y2="112.15" style="fill:none;stroke:#2e353a;stroke-linecap:round;stroke-linejoin:round"></line><line x1="127.57" y1="116.36" x2="344.12" y2="116.36" style="fill:none;stroke:#2e353a;stroke-linecap:round;stroke-linejoin:round"></line><line x1="127.57" y1="120.57" x2="344.12" y2="120.57" style="fill:none;stroke:#2e353a;stroke-linecap:round;stroke-linejoin:round"></line><line x1="127.57" y1="124.78" x2="344.12" y2="124.78" style="fill:none;stroke:#2e353a;stroke-linecap:round;stroke-linejoin:round"></line><line x1="144.19" y1="90.34" x2="164.61" y2="90.34" style="fill:none;stroke:#2e353a;stroke-linecap:round;stroke-linejoin:round"></line><line x1="144.19" y1="94.55" x2="196.11" y2="94.55" style="fill:none;stroke:#2e353a;stroke-linecap:round;stroke-linejoin:round"></line><line x1="144.19" y1="98.76" x2="170.15" y2="98.76" style="fill:none;stroke:#2e353a;stroke-linecap:round;stroke-linejoin:round"></line><rect x="127.22" y="86.83" width="14.89" height="16.96" rx="1.9" style="fill:#C53F3F"></rect><path d="M354.19,331V362.3a2.82,2.82,0,0,1-2.82,2.82H126.63a2.82,2.82,0,0,1-2.82-2.82V315.87a2.81,2.81,0,0,1,2.82-2.81H351.37a2.81,2.81,0,0,1,2.82,2.81v9.5" style="fill:#fff;stroke:#2e353a;stroke-miterlimit:10"></path><line x1="127.57" y1="341.14" x2="344.12" y2="341.14" style="fill:none;stroke:#2e353a;stroke-linecap:round;stroke-linejoin:round"></line><line x1="127.57" y1="345.35" x2="344.12" y2="345.35" style="fill:none;stroke:#2e353a;stroke-linecap:round;stroke-linejoin:round"></line><line x1="127.57" y1="349.56" x2="344.12" y2="349.56" style="fill:none;stroke:#2e353a;stroke-linecap:round;stroke-linejoin:round"></line><line x1="127.57" y1="353.77" x2="344.12" y2="353.77" style="fill:none;stroke:#2e353a;stroke-linecap:round;stroke-linejoin:round"></line><line x1="144.19" y1="319.33" x2="164.61" y2="319.33" style="fill:none;stroke:#2e353a;stroke-linecap:round;stroke-linejoin:round"></line><line x1="144.19" y1="323.54" x2="196.11" y2="323.54" style="fill:none;stroke:#2e353a;stroke-linecap:round;stroke-linejoin:round"></line><line x1="144.19" y1="327.75" x2="170.15" y2="327.75" style="fill:none;stroke:#2e353a;stroke-linecap:round;stroke-linejoin:round"></line><rect x="127.22" y="315.83" width="14.89" height="16.96" rx="1.9" style="fill:#C53F3F"></rect><path d="M123.81,222.67v-59.1a2.81,2.81,0,0,1,2.82-2.81H351.37a2.81,2.81,0,0,1,2.82,2.81V285.4a2.81,2.81,0,0,1-2.82,2.81H126.63a2.81,2.81,0,0,1-2.82-2.81V247.12" style="fill:#fff;stroke:#2e353a;stroke-miterlimit:10"></path><line x1="123.81" y1="240.35" x2="123.81" y2="228.31" style="fill:#fff;stroke:#2e353a;stroke-miterlimit:10"></line><line x1="144.19" y1="167.03" x2="164.61" y2="167.03" style="fill:none;stroke:#2e353a;stroke-linecap:round;stroke-linejoin:round"></line><line x1="144.19" y1="171.24" x2="196.11" y2="171.24" style="fill:none;stroke:#2e353a;stroke-linecap:round;stroke-linejoin:round"></line><line x1="144.19" y1="175.45" x2="170.15" y2="175.45" style="fill:none;stroke:#2e353a;stroke-linecap:round;stroke-linejoin:round"></line><rect x="127.22" y="163.53" width="14.89" height="16.96" rx="1.9" style="fill:#C53F3F"></rect><path d="M156.46,297.45a5.78,5.78,0,1,0-5.78,5.78A5.78,5.78,0,0,0,156.46,297.45Z" style="fill:#C53F3F"></path><circle cx="166.73" cy="297.45" r="5.78" style="fill:#C53F3F"></circle><path d="M188.57,297.45a5.78,5.78,0,1,0-5.78,5.78A5.78,5.78,0,0,0,188.57,297.45Z" style="fill:#C53F3F"></path><path d="M156.46,138.17a5.78,5.78,0,1,0-5.78,5.78A5.78,5.78,0,0,0,156.46,138.17Z" style="fill:#C53F3F"></path><path d="M172.52,138.17a5.79,5.79,0,1,0-5.79,5.78A5.78,5.78,0,0,0,172.52,138.17Z" style="fill:#C53F3F"></path><path d="M188.57,138.17a5.78,5.78,0,1,0-5.78,5.78A5.78,5.78,0,0,0,188.57,138.17Z" style="fill:#C53F3F"></path><path d="M156.46,374.52a5.78,5.78,0,1,0-5.78,5.78A5.78,5.78,0,0,0,156.46,374.52Z" style="fill:#C53F3F"></path><path d="M172.52,374.52a5.79,5.79,0,1,0-5.79,5.78A5.78,5.78,0,0,0,172.52,374.52Z" style="fill:#C53F3F"></path><path d="M188.57,374.52a5.78,5.78,0,1,0-5.78,5.78A5.78,5.78,0,0,0,188.57,374.52Z" style="fill:#C53F3F"></path><rect x="143.15" y="181.88" width="199.75" height="94.91" style="fill:#C53F3F"></rect><rect x="143.15" y="181.88" width="199.75" height="94.91" style="fill:#fff;opacity:0.5"></rect><rect x="143.15" y="181.88" width="199.75" height="94.91" style="fill:none;stroke:#2e353a;stroke-miterlimit:10"></rect><line x1="143.15" y1="276.79" x2="342.9" y2="181.88" style="fill:none;stroke:#2e353a;stroke-miterlimit:10"></line></g></svg>